<svg width="27" height="27" viewBox="0 0 27 27" fill="none" xmlns="http://www.w3.org/2000/svg">
<path d="M12.6922 1.75555C11.2132 3.37731 10.4161 5.50664 10.4666 7.70091C10.5171 9.89518 11.4113 11.9856 12.9634 13.5376C14.5154 15.0896 16.6059 15.9838 18.8002 16.0343C20.9946 16.0848 23.124 15.2877 24.7458 13.8088C24.8284 13.7306 24.9312 13.6771 25.0426 13.6544C25.154 13.6317 25.2696 13.6407 25.3762 13.6802C25.6143 13.7709 25.7685 14.0049 25.7482 14.2592C25.5825 16.2678 24.9344 18.2066 23.859 19.911C22.7835 21.6154 21.3125 23.035 19.5708 24.0492C17.8292 25.0634 15.8685 25.6422 13.8553 25.7363C11.8421 25.8305 9.83594 25.4373 8.00726 24.5901C6.17857 23.7429 4.58143 22.4669 3.35154 20.8703C2.12166 19.2737 1.29538 17.4038 0.942937 15.4195C0.590488 13.4353 0.722281 11.3952 1.32712 9.47277C1.93195 7.55032 2.99195 5.8023 4.41704 4.37723C6.51123 2.27687 9.28538 0.991514 12.2417 0.751793C12.3656 0.741926 12.4894 0.77297 12.594 0.840165C12.6985 0.90736 12.7782 1.007 12.8207 1.12381C12.9019 1.34025 12.8478 1.58375 12.6922 1.7542V1.75555Z" stroke="#353535" stroke-width="1.5" stroke-linejoin="round"/>
</svg>
